# xmcd CD database file
#
# Track frame offsets:
#	150
#	18956
#	33034
#	48023
#	62613
#	81007
#	95736
#	105984
#	121226
#	137882
#	153949
#	168623
#	183426
#	199289
#
# Disc length: 2828 seconds
#
# Revision: 3
# Processed by: cddbd v1.5.2PL0 Copyright (c) Steve Scherf et al.
# Submitted via: CDex 2.21
#
DISCID=ac0b0a0e
DTITLE=Maren Morris - Girl
DYEAR=2019
DGENRE=Country
TTITLE0=Girl
TTITLE1=The Feels
TTITLE2=All My Favorite People
TTITLE3=A Song for Everything
TTITLE4=Common
TTITLE5=Flavor
TTITLE6=Make Out With Me
TTITLE7=Gold Love
TTITLE8=Great Ones
TTITLE9=RSVP
TTITLE10=To Hell and Back
TTITLE11=The Bones
TTITLE12=Good Woman
TTITLE13=Shade
EXTD=YEAR: 2019
EXTT0=
EXTT1=
EXTT2=
EXTT3=
EXTT4=
EXTT5=
EXTT6=
EXTT7=
EXTT8=
EXTT9=
EXTT10=
EXTT11=
EXTT12=
EXTT13=
PLAYORDER=
